<?xml version="1.0" encoding="UTF-8"?>
<svg version="1.1" xmlns="http://www.w3.org/2000/svg" width="32" height="32">
<path d="M0 0 C10.56 0 21.12 0 32 0 C32 10.56 32 21.12 32 32 C21.44 32 10.88 32 0 32 C0 21.44 0 10.88 0 0 Z " fill="#001000" transform="translate(0,0)"/>
<path d="M0 0 C3.96 0 7.92 0 12 0 C12 0.66 12 1.32 12 2 C12.66 2 13.32 2 14 2 C14 3.98 14 5.96 14 8 C14.66 8 15.32 8 16 8 C16 8.66 16 9.32 16 10 C16.66 10 17.32 10 18 10 C18 11.32 18 12.64 18 14 C15.36 14 12.72 14 10 14 C10 14.66 10 15.32 10 16 C10.66 16 11.32 16 12 16 C12 17.98 12 19.96 12 22 C6.72 22 1.44 22 -4 22 C-4 15.4 -4 8.8 -4 2 C-2.68 2 -1.36 2 0 2 C0 1.34 0 0.68 0 0 Z " fill="#F04727" transform="translate(4,10)"/>
<path d="M0 0 C10.56 0 21.12 0 32 0 C32 7.92 32 15.84 32 24 C31.34 24 30.68 24 30 24 C30 23.34 30 22.68 30 22 C29.34 22 28.68 22 28 22 C28 19.36 28 16.72 28 14 C27.34 14 26.68 14 26 14 C26 13.34 26 12.68 26 12 C27.32 12 28.64 12 30 12 C30 11.34 30 10.68 30 10 C29.34 10 28.68 10 28 10 C28 9.34 28 8.68 28 8 C27.34 8 26.68 8 26 8 C26 6.68 26 5.36 26 4 C25.34 4 24.68 4 24 4 C24 3.34 24 2.68 24 2 C20.7 2 17.4 2 14 2 C14 2.66 14 3.32 14 4 C12.68 4 11.36 4 10 4 C10 4.66 10 5.32 10 6 C8.68 6 7.36 6 6 6 C6 6.66 6 7.32 6 8 C5.34 8 4.68 8 4 8 C4 9.32 4 10.64 4 12 C2.68 12 1.36 12 0 12 C0 8.04 0 4.08 0 0 Z " fill="#0A0000" transform="translate(0,0)"/>
<path d="M0 0 C3.96 0 7.92 0 12 0 C12 0.66 12 1.32 12 2 C8.7 2 5.4 2 2 2 C2 2.66 2 3.32 2 4 C1.34 4 0.68 4 0 4 C0 4.66 0 5.32 0 6 C-0.66 6 -1.32 6 -2 6 C-2 7.32 -2 8.64 -2 10 C-1.34 10 -0.68 10 0 10 C0 10.66 0 11.32 0 12 C0.66 12 1.32 12 2 12 C2 12.66 2 13.32 2 14 C3.32 14 4.64 14 6 14 C6 14.66 6 15.32 6 16 C7.98 16 9.96 16 12 16 C12 17.98 12 19.96 12 22 C6.72 22 1.44 22 -4 22 C-4 15.4 -4 8.8 -4 2 C-2.68 2 -1.36 2 0 2 C0 1.34 0 0.68 0 0 Z " fill="#ECFFB4" transform="translate(4,10)"/>
<path d="M0 0 C0.66 0 1.32 0 2 0 C2 0.66 2 1.32 2 2 C2.66 2 3.32 2 4 2 C4 3.32 4 4.64 4 6 C4.66 6 5.32 6 6 6 C6 6.66 6 7.32 6 8 C6.66 8 7.32 8 8 8 C8 7.34 8 6.68 8 6 C8.66 6 9.32 6 10 6 C10 7.98 10 9.96 10 12 C4.72 12 -0.56 12 -6 12 C-6 10.02 -6 8.04 -6 6 C-6.66 6 -7.32 6 -8 6 C-8 5.34 -8 4.68 -8 4 C-5.36 4 -2.72 4 0 4 C0 2.68 0 1.36 0 0 Z " fill="#0B0000" transform="translate(22,20)"/>
<path d="M0 0 C0.66 0 1.32 0 2 0 C2 0.66 2 1.32 2 2 C2.66 2 3.32 2 4 2 C4 2.66 4 3.32 4 4 C4.66 4 5.32 4 6 4 C6 5.32 6 6.64 6 8 C3.36 8 0.72 8 -2 8 C-2 7.34 -2 6.68 -2 6 C-1.34 6 -0.68 6 0 6 C0 5.34 0 4.68 0 4 C-0.66 4 -1.32 4 -2 4 C-2 3.34 -2 2.68 -2 2 C-1.34 2 -0.68 2 0 2 C0 1.34 0 0.68 0 0 Z " fill="#FFA347" transform="translate(16,16)"/>
</svg>
